<?xml version="1.0" encoding="UTF-8" standalone="no"?>
<!DOCTYPE svg PUBLIC "-//W3C//DTD SVG 1.1//EN"
 "http://www.w3.org/Graphics/SVG/1.1/DTD/svg11.dtd">
<!-- Generated by graphviz version 2.43.0 (0)
 -->
<!-- Title: Debruijn graph Pages: 1 -->
<svg width="649pt" height="219pt"
 viewBox="0.00 0.00 649.06 218.92" xmlns="http://www.w3.org/2000/svg" xmlns:xlink="http://www.w3.org/1999/xlink">
<g id="graph0" class="graph" transform="scale(1 1) rotate(0) translate(4 214.92)">
<title>Debruijn graph</title>
<polygon fill="white" stroke="transparent" points="-4,4 -4,-214.92 645.06,-214.92 645.06,4 -4,4"/>
<!-- GAC -->
<g id="node1" class="node">
<title>GAC</title>
<ellipse fill="none" stroke="black" cx="230.59" cy="-164" rx="31.4" ry="18"/>
<text text-anchor="middle" x="230.59" y="-160.3" font-family="Times,serif" font-size="14.00">GAC</text>
</g>
<!-- GCA -->
<g id="node2" class="node">
<title>GCA</title>
<ellipse fill="none" stroke="black" cx="230.59" cy="-45" rx="31.4" ry="18"/>
<text text-anchor="middle" x="230.59" y="-41.3" font-family="Times,serif" font-size="14.00">GCA</text>
</g>
<!-- CAA -->
<g id="node6" class="node">
<title>CAA</title>
<ellipse fill="none" stroke="black" cx="328.33" cy="-20" rx="30.59" ry="18"/>
<text text-anchor="middle" x="328.33" y="-16.3" font-family="Times,serif" font-size="14.00">CAA</text>
</g>
<!-- GCA&#45;&gt;CAA -->
<g id="edge8" class="edge">
<title>GCA&#45;&gt;CAA</title>
<path fill="none" stroke="black" d="M259.28,-37.77C268.89,-35.26 279.83,-32.4 290.08,-29.73"/>
<polygon fill="black" stroke="black" points="291.24,-33.04 300.03,-27.13 289.47,-26.27 291.24,-33.04"/>
</g>
<!-- CAT -->
<g id="node8" class="node">
<title>CAT</title>
<ellipse fill="none" stroke="black" cx="424.13" cy="-72" rx="29.5" ry="18"/>
<text text-anchor="middle" x="424.13" y="-68.3" font-family="Times,serif" font-size="14.00">CAT</text>
</g>
<!-- GCA&#45;&gt;CAT -->
<g id="edge3" class="edge">
<title>GCA&#45;&gt;CAT</title>
<path fill="none" stroke="black" d="M261.09,-49.16C294.43,-53.86 348.77,-61.52 385.22,-66.66"/>
<polygon fill="black" stroke="black" points="385.06,-70.17 395.45,-68.1 386.04,-63.24 385.06,-70.17"/>
</g>
<!-- TGC -->
<g id="node3" class="node">
<title>TGC</title>
<ellipse fill="none" stroke="black" cx="130.89" cy="-72" rx="30.59" ry="18"/>
<text text-anchor="middle" x="130.89" y="-68.3" font-family="Times,serif" font-size="14.00">TGC</text>
</g>
<!-- TGC&#45;&gt;GCA -->
<g id="edge7" class="edge">
<title>TGC&#45;&gt;GCA</title>
<path fill="none" stroke="black" d="M158.85,-64.55C169.14,-61.71 181.06,-58.41 192.16,-55.34"/>
<polygon fill="black" stroke="black" points="193.33,-58.65 202.04,-52.61 191.47,-51.9 193.33,-58.65"/>
</g>
<!-- TTG -->
<g id="node4" class="node">
<title>TTG</title>
<ellipse fill="none" stroke="black" cx="31.2" cy="-141" rx="30.59" ry="18"/>
<text text-anchor="middle" x="31.2" y="-137.3" font-family="Times,serif" font-size="14.00">TTG</text>
</g>
<!-- TTG&#45;&gt;TGC -->
<g id="edge6" class="edge">
<title>TTG&#45;&gt;TGC</title>
<path fill="none" stroke="black" d="M51.5,-127.37C65.95,-117.16 85.93,-103.05 102.1,-91.63"/>
<polygon fill="black" stroke="black" points="104.48,-94.23 110.63,-85.6 100.44,-88.51 104.48,-94.23"/>
</g>
<!-- TGA -->
<g id="node5" class="node">
<title>TGA</title>
<ellipse fill="none" stroke="black" cx="130.89" cy="-164" rx="30.59" ry="18"/>
<text text-anchor="middle" x="130.89" y="-160.3" font-family="Times,serif" font-size="14.00">TGA</text>
</g>
<!-- TTG&#45;&gt;TGA -->
<g id="edge13" class="edge">
<title>TTG&#45;&gt;TGA</title>
<path fill="none" stroke="black" d="M59.93,-147.53C69.93,-149.88 81.4,-152.58 92.12,-155.11"/>
<polygon fill="black" stroke="black" points="91.55,-158.57 102.09,-157.45 93.16,-151.76 91.55,-158.57"/>
</g>
<!-- TGA&#45;&gt;GAC -->
<g id="edge14" class="edge">
<title>TGA&#45;&gt;GAC</title>
<path fill="none" stroke="black" d="M161.47,-164C170.12,-164 179.73,-164 188.94,-164"/>
<polygon fill="black" stroke="black" points="189.1,-167.5 199.1,-164 189.1,-160.5 189.1,-167.5"/>
</g>
<!-- AAT -->
<g id="node10" class="node">
<title>AAT</title>
<ellipse fill="none" stroke="black" cx="424.13" cy="-18" rx="28.7" ry="18"/>
<text text-anchor="middle" x="424.13" y="-14.3" font-family="Times,serif" font-size="14.00">AAT</text>
</g>
<!-- CAA&#45;&gt;AAT -->
<g id="edge9" class="edge">
<title>CAA&#45;&gt;AAT</title>
<path fill="none" stroke="black" d="M359.01,-19.37C367.25,-19.19 376.31,-19 384.97,-18.81"/>
<polygon fill="black" stroke="black" points="385.31,-22.31 395.24,-18.59 385.17,-15.31 385.31,-22.31"/>
</g>
<!-- ATT -->
<g id="node7" class="node">
<title>ATT</title>
<ellipse fill="none" stroke="black" cx="517.97" cy="-95" rx="28.7" ry="18"/>
<text text-anchor="middle" x="517.97" y="-91.3" font-family="Times,serif" font-size="14.00">ATT</text>
</g>
<!-- ATT&#45;&gt;TTG -->
<g id="edge5" class="edge">
<title>ATT&#45;&gt;TTG</title>
<path fill="none" stroke="black" d="M490.37,-100.33C454.12,-107.13 387.09,-118 329.33,-118 229.59,-118 229.59,-118 229.59,-118 174,-118 110.21,-127.11 70.55,-133.86"/>
<polygon fill="black" stroke="black" points="69.77,-130.44 60.51,-135.61 70.97,-137.34 69.77,-130.44"/>
</g>
<!-- TTT -->
<g id="node12" class="node">
<title>TTT</title>
<ellipse fill="none" stroke="black" cx="611.81" cy="-141" rx="29.5" ry="18"/>
<text text-anchor="middle" x="611.81" y="-137.3" font-family="Times,serif" font-size="14.00">TTT</text>
</g>
<!-- ATT&#45;&gt;TTT -->
<g id="edge11" class="edge">
<title>ATT&#45;&gt;TTT</title>
<path fill="none" stroke="black" d="M540.74,-105.9C552.35,-111.72 566.84,-118.97 579.62,-125.38"/>
<polygon fill="black" stroke="black" points="578.06,-128.51 588.57,-129.86 581.19,-122.25 578.06,-128.51"/>
</g>
<!-- CAT&#45;&gt;ATT -->
<g id="edge4" class="edge">
<title>CAT&#45;&gt;ATT</title>
<path fill="none" stroke="black" d="M451.69,-78.65C460.89,-80.96 471.36,-83.58 481.18,-86.04"/>
<polygon fill="black" stroke="black" points="480.55,-89.49 491.1,-88.52 482.25,-82.7 480.55,-89.49"/>
</g>
<!-- GGC -->
<g id="node9" class="node">
<title>GGC</title>
<ellipse fill="none" stroke="black" cx="130.89" cy="-18" rx="32.49" ry="18"/>
<text text-anchor="middle" x="130.89" y="-14.3" font-family="Times,serif" font-size="14.00">GGC</text>
</g>
<!-- GGC&#45;&gt;GCA -->
<g id="edge2" class="edge">
<title>GGC&#45;&gt;GCA</title>
<path fill="none" stroke="black" d="M160.41,-25.88C170.4,-28.64 181.77,-31.78 192.36,-34.71"/>
<polygon fill="black" stroke="black" points="191.64,-38.14 202.21,-37.43 193.5,-31.4 191.64,-38.14"/>
</g>
<!-- AAT&#45;&gt;ATT -->
<g id="edge10" class="edge">
<title>AAT&#45;&gt;ATT</title>
<path fill="none" stroke="black" d="M441.97,-32.12C455.99,-43.88 476.16,-60.79 492.06,-74.11"/>
<polygon fill="black" stroke="black" points="490.01,-76.96 499.92,-80.71 494.51,-71.6 490.01,-76.96"/>
</g>
<!-- TGG -->
<g id="node11" class="node">
<title>TGG</title>
<ellipse fill="none" stroke="black" cx="31.2" cy="-18" rx="31.4" ry="18"/>
<text text-anchor="middle" x="31.2" y="-14.3" font-family="Times,serif" font-size="14.00">TGG</text>
</g>
<!-- TGG&#45;&gt;GGC -->
<g id="edge1" class="edge">
<title>TGG&#45;&gt;GGC</title>
<path fill="none" stroke="black" d="M62.57,-18C70.62,-18 79.44,-18 87.98,-18"/>
<polygon fill="black" stroke="black" points="88.18,-21.5 98.18,-18 88.18,-14.5 88.18,-21.5"/>
</g>
<!-- TTT&#45;&gt;TTG -->
<g id="edge12" class="edge">
<title>TTT&#45;&gt;TTG</title>
<path fill="none" stroke="black" d="M590.84,-153.82C557.76,-173.77 488.92,-210 425.13,-210 229.59,-210 229.59,-210 229.59,-210 170.67,-210 152.77,-213.69 98.39,-191 82.63,-184.42 67.26,-173.2 55.3,-163.06"/>
<polygon fill="black" stroke="black" points="57.43,-160.26 47.61,-156.28 52.8,-165.51 57.43,-160.26"/>
</g>
</g>
</svg>
